<svg xmlns="http://www.w3.org/2000/svg" xmlns:xlink="http://www.w3.org/1999/xlink" width="140" height="105" viewBox="0 0 140 105">
  <defs>
    <clipPath id="clip-path">
      <rect id="Rectangle_7" data-name="Rectangle 7" width="140" height="105" fill="none"/>
    </clipPath>
  </defs>
  <g id="no-templates-to-display" clip-path="url(#clip-path)">
    <g id="Group_16" data-name="Group 16">
      <path id="Path_114" data-name="Path 114" d="M129.25,75.06c1.3,0,.94,8.31,2.88,10.37,1.97,2.05,7.37,2.13,7.37,3.27s-6.26,2.52-7.65,4.96c-1.41,2.44-2.24,9.42-3.19,9.42s-1.41-7.37-3.82-9.34c-2.44-1.97-8.2-3.08-8.2-3.82s5.6-.94,7.93-3.35c2.33-2.44,3.35-11.5,4.68-11.5Z" fill="#ecedfb"/>
      <path id="Path_115" data-name="Path 115" d="M137.43,40.75H79.23a.679.679,0,0,1-.69-.69V2.61a.679.679,0,0,1,.69-.69h58.23a.679.679,0,0,1,.69.69V40.05a.724.724,0,0,1-.72.69Z" fill="#ecedfb"/>
      <path id="Path_116" data-name="Path 116" d="M77.54,100.34H39.35a1,1,0,0,1-1-1V74.48a1,1,0,0,1,1-1H77.51a1,1,0,0,1,1,1V99.34A.971.971,0,0,1,77.54,100.34Z" fill="#ecedfb"/>
      <circle id="Ellipse_18" data-name="Ellipse 18" cx="2.83" cy="2.83" r="2.83" transform="translate(5.14 8.01)" fill="#ecedfb"/>
      <circle id="Ellipse_19" data-name="Ellipse 19" cx="8.07" cy="8.07" r="8.07" transform="translate(0.49 55.07)" fill="#ecedfb"/>
      <g id="Group_15" data-name="Group 15">
        <path id="Path_117" data-name="Path 117" d="M49.46,21.21c.11-.17.28-.3.28-.42-.03-.36.19-.36.42-.39.58-.06,1.14-.08,1.72-.11.67-.03,1.33-.06,2-.06a12.18,12.18,0,0,1,1.47.14c.08,0,.19.06.25.03a2.518,2.518,0,0,1,1.44-.08,5.826,5.826,0,0,0,.72-.06,1.845,1.845,0,0,1,.39-.03,5.746,5.746,0,0,0,1.94.03c.69-.03,1.39-.03,2.05-.03h2.24c1.14-.03,2.3-.06,3.44-.06.97,0,1.94.06,2.97.08a2.659,2.659,0,0,0,.19.3c.06,0,.11,0,.14-.03.11-.25.3-.28.55-.28.8,0,1.58,0,2.38-.03.33,0,.67-.03,1-.03a11.109,11.109,0,0,0,1.41.08c.72-.03,1.44-.17,2.16-.22a5.282,5.282,0,0,1,1.19.06,5.891,5.891,0,0,0,1.39-.03c.53-.03,1.05,0,1.58,0,1.14,0,2.3.03,3.44.03.94.03,1.88.06,2.85.08.06,0,.08.03.14.03a4.245,4.245,0,0,1,1.55-.08c.55.03,1.08-.11,1.64-.11.75,0,1.5.03,2.24.03h.39c.78,0,1.55-.03,2.33-.03a6.765,6.765,0,0,0,.78,0,1.042,1.042,0,0,1,.8.36.58.58,0,0,1-.08.78,1.468,1.468,0,0,1-.97.39c-1.3-.03-2.61-.06-3.91-.06-.97,0-1.94.06-2.91.08-.61,0-1.25.03-1.86-.03a13.824,13.824,0,0,0-3.02.08.624.624,0,0,1-.33-.03,4.053,4.053,0,0,0-1.39-.03,13.888,13.888,0,0,1-1.58-.03,3.463,3.463,0,0,0-.91,0,14.892,14.892,0,0,1-2.91,0,16.914,16.914,0,0,1-2.36.06,5.923,5.923,0,0,1-1.33-.42.666.666,0,0,1-.19.17c-.14.08-.3.22-.44.22-.53,0-1.08-.03-1.61-.06-.11,0-.22-.06-.33-.03a15.274,15.274,0,0,1-3.88.06,1.482,1.482,0,0,1-.55-.17,8.686,8.686,0,0,1-1.3.25c-.89.06-1.77.03-2.66.03a6.826,6.826,0,0,0-.78.06,5.76,5.76,0,0,1-.72,0c-.28-.06-.55-.33-.75-.28-.25.06-.44.22-.72.06-.47.3-.97-.11-1.44.06a8.321,8.321,0,0,1-3.1.14c-1.19-.03-2.36.03-3.55.03a5.374,5.374,0,0,1-.72-.06c-.36-.06-.72-.19-1.05.03-.08.06-.22.03-.33,0-.44-.08-.86-.14-1.3-.25-.22,0-.3-.11-.47-.25Z" fill="#4659a6"/>
        <path id="Path_118" data-name="Path 118" d="M36.74,14.61c-.36-.55-.14-1.11-.14-1.64,0-.06.11-.14.08-.17a4.118,4.118,0,0,1,.17-1.94,4.174,4.174,0,0,1,.5-1.83,2.792,2.792,0,0,1,1.5-1.19,3.291,3.291,0,0,1,1.94.03c.03-.17.08-.3.11-.47.61,0,1.22-.03,1.83,0a.7.7,0,0,1,.69.91c-.06.25-.17.42-.44.42-.22,0-.44.03-.67.03-.78.06-1.55.08-2.3.17a1.8,1.8,0,0,0-1.69,1.69c-.17,1.05-.3,2.13-.39,3.21-.11,1.3-.14,2.63-.19,3.94-.03.83,0,1.66,0,2.52a2.4,2.4,0,0,0,.58.08c.86-.03,1.69.03,2.55,0a14.971,14.971,0,0,1,2.22-.06,5.5,5.5,0,0,0,1.41-.06h.06a14.741,14.741,0,0,0,1.88,0c.53,0,.8.22.8.58a.748.748,0,0,1-.83.75c-.58,0-1.19.25-1.77-.03-.11-.06-.3,0-.47.03a5.3,5.3,0,0,1-2.02-.06,5.922,5.922,0,0,0-1.14.11c-.55,0-1.14.25-1.69-.03-.58.36-1.25.08-1.86.14a26.827,26.827,0,0,1-2.97-.03.486.486,0,0,1-.5-.44c-.06-.42.03-.69.33-.78a3.783,3.783,0,0,1,1.11-.08c.75.06.86-.06.89-.75.03-.91.11-1.83.14-2.74a7.022,7.022,0,0,0,0-1.52.754.754,0,0,1,.28-.8Z" fill="#4659a6"/>
        <path id="Path_119" data-name="Path 119" d="M34.47,32.68c.55-.06,1.08-.14,1.69-.19a2.448,2.448,0,0,0,.11-.5c.03-.69.03-1.36.06-2.05.06-1.03.14-2.05.22-3.08.03-.55.03-1.11.06-1.66.03-.36.08-.72.55-.83.28.08.3.36.39.61a7.116,7.116,0,0,1,.22,2.3,5.084,5.084,0,0,1-.03.67c0,.17.03.39-.06.44-.33.28-.17.61-.17.91.03.89.08,1.75.14,2.63.03.53.11.55.58.58.58.03,1.16.11,1.75.11.25,0,.5-.11.78-.11a9.561,9.561,0,0,0,1.77-.03c.42-.08.89.22,1.36.08.06-.03.25.19.25.3.03.33,0,.69,0,1.11a4.049,4.049,0,0,1-.97.03c-.83-.17-1.66.14-2.49-.14-.19-.06-.44.06-.64.06H38.52c-.83.03-.89.17-.86.97.03.86,0,1.69,0,2.58-.44.06-.83.11-1.25.19a2.225,2.225,0,0,1-.08-1.64.467.467,0,0,0-.03-.47c-.19-.36-.08-.53.28-.72a4.83,4.83,0,0,0-.33-.64.411.411,0,0,0-.3-.22c-.42-.11-.86-.14-1.3-.25-.19-.06-.39-.17-.58-.25a3.209,3.209,0,0,0,.42-.8Zm2.47-.94a1.529,1.529,0,0,0,.17.14.358.358,0,0,0,.11-.06c0-.06-.03-.14-.06-.14-.06-.03-.14,0-.22.06Z" fill="#4659a6"/>
        <path id="Path_120" data-name="Path 120" d="M12.74,33.82a1.485,1.485,0,0,1-.47.17c-1.25.08-1.97.39-2.16,2.22-.11,1.03-.28,2.05-.39,3.08-.03.33.03.69,0,1.05-.03.72-.08,1.44-.11,2.19-.03.53,0,1.05,0,1.58,0,.69,0,1.36-.03,2.05a.684.684,0,0,1-.61.69.645.645,0,0,1-.72-.53,12.126,12.126,0,0,1-.11-1.72c0-.58.03-1.11.06-1.66.03-.75.06-1.5.08-2.24,0-.33-.14-.72.17-.89a7.714,7.714,0,0,1-.03-1.58c.06-.28,0-.55.06-.83a9.121,9.121,0,0,1,.78-3.35,1.917,1.917,0,0,1,1.39-1.03c.19-.03.36-.14.55-.17a2.1,2.1,0,0,1,1.44.25c.03-.19.03-.33.06-.5,0,0,.06-.06.08-.06.72,0,1.47,0,2.19.03a3.245,3.245,0,0,1,.91.17,2.131,2.131,0,0,1,.47.39,1.222,1.222,0,0,0-1.14.53.637.637,0,0,1-.44.19c-.72,0-1.39-.03-2.02-.03-.11-.14-.22-.28-.36-.47-.08.17-.14.28-.22.42a2.87,2.87,0,0,1,.58.06Zm-.69-.69s-.06.06-.06.08a.414.414,0,0,0,.06.11.57.57,0,0,1,.11-.11A.629.629,0,0,1,12.05,33.13Z" fill="#4659a6"/>
        <path id="Path_121" data-name="Path 121" d="M107.47,57.71h1.36v1.47c-.03,1.33-.06,2.69-.11,4.02a1.756,1.756,0,0,0,.06.39c.03.17.11.42.03.5-.39.39.03.89-.19,1.3-.03.03.08.14.14.22.03.08.11.17.08.22-.28.75.06,1.5-.06,2.22-.06.39-.11.75-.17,1.19.14.06.22.22.19.53-.06.75,0,1.5-.06,2.24-.06,1.03.03,1.22-.86,1.52a1.688,1.688,0,0,1-.39-.36.774.774,0,0,1-.19-.44c0-.75.06-1.5.06-2.24a14.417,14.417,0,0,0-.03-3.08,6.23,6.23,0,0,1,.03-1.05,7.79,7.79,0,0,1,.17-2.55.212.212,0,0,0,0-.19,31.048,31.048,0,0,1-.11-4.82c.03-.33.06-.67.06-1.08Z" fill="#4659a6"/>
        <path id="Path_122" data-name="Path 122" d="M104.2,80.33c-.72.06-1.44.14-2.16.14a9.271,9.271,0,0,1-2.63-.08c-.08-.03-.19.06-.3.06-.78.03-1.55.06-2.3.06a2.361,2.361,0,0,1-.44-.11.461.461,0,0,1-.39-.53.608.608,0,0,1,.58-.58c.36-.03.72-.22,1.08.03.06.03.14.06.19.03.55-.42,1.19-.11,1.8-.17.58-.06,1.19-.03,1.77-.06a13.911,13.911,0,0,0,1.58-.06c1.16-.11,2.33.22,3.46-.22a.892.892,0,0,0,.67-.8c.11-.78.28-1.55.44-2.3.06-.25.11-.53.42-.5a.527.527,0,0,1,.47.5,3.744,3.744,0,0,1,.08,1.16,7.1,7.1,0,0,0,.03,1.3,2.054,2.054,0,0,1-1.66,1.97,8.975,8.975,0,0,1-2.69.17Z" fill="#4659a6"/>
        <path id="Path_123" data-name="Path 123" d="M69.7,92.22c-.08.08-.11.17-.17.17a2.217,2.217,0,0,1-.44.06c-2.19,0-4.35.11-6.57,0V91.09c.22,0,.42-.03.61-.03H76.24c.64,0,.83.19.91.89a1.722,1.722,0,0,1-.36-.03c.03.14.03.28.06.44a1.129,1.129,0,0,1-.89.17,2.3,2.3,0,0,0-1.3,0c-.11.06-.3-.06-.44-.03-.91.06-1.83-.06-2.74,0a2.125,2.125,0,0,1-1.77-.28Z" fill="#4659a6"/>
        <path id="Path_124" data-name="Path 124" d="M88.85,92.55c-.72.06-1.44.17-2.16.17a9.248,9.248,0,0,1-2.63-.08.7.7,0,0,0-.25,0c-.75.03-1.5.08-2.24.11a1.8,1.8,0,0,1-.5-.11c-.28-.08-.5-.22-.44-.55.03-.36.25-.53.64-.61a1.581,1.581,0,0,1,1.03.06.212.212,0,0,0,.19,0,13.057,13.057,0,0,1,3.58-.22c.53,0,1.05,0,1.58-.03.89-.03,1.75-.03,2.63-.06h.14c1.14-.19,1.27-.33,1.44-1.44.11-.64.25-1.27.39-1.91.06-.19.14-.39.39-.39a.448.448,0,0,1,.47.39,5.883,5.883,0,0,1,.08,1.03c.03.3,0,.61.06.91a2.249,2.249,0,0,1-1.16,2.38,4.934,4.934,0,0,1-1.52.39,15.328,15.328,0,0,1-1.66.03l-.03-.06Z" fill="#4659a6"/>
        <path id="Path_125" data-name="Path 125" d="M28.01,21.6a3.113,3.113,0,0,1-.83.19,1.838,1.838,0,0,0-1.72,1.8c-.19,1.19-.33,2.41-.42,3.6-.06.75,0,1.5-.03,2.24a5.594,5.594,0,0,1-.08.91.618.618,0,0,1-.83.5c-.47-.11-.61-.33-.55-.8.06-.61.08-1.22.08-1.83,0-.44-.03-.44.3-.8a.869.869,0,0,1-.19-.94c.11-.53,0-1.08.06-1.64a12.245,12.245,0,0,1,.42-2.33,2.463,2.463,0,0,1,1.8-1.83,2.819,2.819,0,0,1,1.44-.14,1.972,1.972,0,0,1,.5.17c.03-.14.06-.3.08-.42.89,0,1.77-.03,2.63.03.28,0,.64,0,.78.44-.39.14-.8.22-1.03.64-.06.08-.28.11-.42.14-.64.06-1.33.06-2,.06-.06-.17-.14-.28-.47-.17a4.356,4.356,0,0,1,.47.17Z" fill="#4659a6"/>
        <path id="Path_126" data-name="Path 126" d="M116.89,8.52h-2.27a1.5,1.5,0,0,1-.69-.17.48.48,0,0,1,.06-.89,1.132,1.132,0,0,1,.64-.14,2.583,2.583,0,0,0,1.14-.14,4.828,4.828,0,0,1,1.14,0c.69.03,1.41.08,2.11.17a2.982,2.982,0,0,1,2.58,1.36,4.3,4.3,0,0,1,.58,3.35,2.3,2.3,0,0,0-.03,1.3.378.378,0,0,1,.03.25c-.19.47.03.94.06,1.41.03.53-.11.83-.55.91-.33.08-.58-.14-.8-.53a2.507,2.507,0,0,1-.17-1.61,2.65,2.65,0,0,0,0-1.05,1.534,1.534,0,0,1,0-.64,4.462,4.462,0,0,0,.08-1.5,1.99,1.99,0,0,0-1.75-1.86,20.488,20.488,0,0,0-2.13-.25Zm4.18,5.29c.06-.06.08-.11.11-.14,0-.03-.06-.08-.08-.08a.2.2,0,0,0-.14.06.816.816,0,0,0,.11.17Z" fill="#4659a6"/>
        <path id="Path_127" data-name="Path 127" d="M92.45,39.56a5.615,5.615,0,0,0,0-2.05c-.03-.08.03-.22.06-.33a4.192,4.192,0,0,0,.06-2.02,2.16,2.16,0,0,0-1.83-1.39c-.89-.06-1.8-.17-2.69-.19-.55-.03-1.11.03-1.64.03a1.332,1.332,0,0,1-.64-.17.479.479,0,0,1,.06-.89.931.931,0,0,1,.5-.14c.69.17,1.33-.25,2-.17s1.33.11,1.97.17a12.58,12.58,0,0,1,1.39.14,2.39,2.39,0,0,1,1.86,1.61c.11.33.3.64.42.97a3.56,3.56,0,0,1-.03,2.02,6.281,6.281,0,0,0-.03,1.3c.03.64.06,1.25.14,1.86.06.3-.22.58-.55.64a.6.6,0,0,1-.75-.39c-.14-.36-.22-.8-.28-1Z" fill="#4659a6"/>
        <path id="Path_128" data-name="Path 128" d="M100.99,20.32a2,2,0,0,1,.78-.17,3.793,3.793,0,0,0,1.14-.14,17.424,17.424,0,0,1,1.77.03c.5.03,1.03.06,1.52.11a3,3,0,0,1,2.94,2.3,4.041,4.041,0,0,1,.14,2.33,6.449,6.449,0,0,0-.06,1.39c.03.61.06,1.22.14,1.83a.637.637,0,0,1-.55.72q-.45.12-.75-.42a3.275,3.275,0,0,1-.19-2c0-.11.08-.25.06-.3a2.6,2.6,0,0,1,0-1.61,5.161,5.161,0,0,0-.06-1.52,2.11,2.11,0,0,0-1.75-1.33c-.97-.08-1.91-.17-2.88-.22a8.722,8.722,0,0,0-1.25.06,2.475,2.475,0,0,1-.47-.03c-.55-.08-.67-.3-.53-1.03Z" fill="#4659a6"/>
        <path id="Path_129" data-name="Path 129" d="M89.59,80.19a8.269,8.269,0,0,1-2.33.03,10.583,10.583,0,0,0-1.25.03,7.039,7.039,0,0,1-1-.19c-.11.03-.28.17-.44.17-2.33,0-4.68-.03-7.01-.03-.14,0-.3.06-.44.06h-.91c.14-.5.28-.94.42-1.47.33,0,.69-.03,1.05,0,2.49.17,4.99.03,7.46.03h4.02c.3,0,.47.14.47.44.06.3.19.64-.03.94Z" fill="#4659a6"/>
        <path id="Path_130" data-name="Path 130" d="M111.35,67.63V66.27c1.47-.03,2.94-.06,4.41-.06h2.44a1.231,1.231,0,0,0,.33-.03c1.14-.14,1.33-.36,1.5-1.47.11-.64.25-1.27.39-1.91.03-.17.28-.42.36-.39.17.06.42.22.44.39a3.259,3.259,0,0,1,.11,1.03,5.766,5.766,0,0,1,0,.72,7.4,7.4,0,0,1-.03,1.16,1.876,1.876,0,0,1-1.39,1.52,8.781,8.781,0,0,1-2.94.33c-.72,0-1.44.08-2.16.06a10.846,10.846,0,0,1-2.55-.06,2.618,2.618,0,0,0-.91.06Z" fill="#4659a6"/>
        <path id="Path_131" data-name="Path 131" d="M19.73,32.68h3.74c.94,0,1.88.03,2.8.03.33,0,.67-.08,1-.08.3,0,.61.06.91.08.06,0,.08.06.11.03a6.766,6.766,0,0,1,2.19-.17,3.566,3.566,0,0,1,.8,0,.706.706,0,0,1,.67.55.773.773,0,0,1-.55.75c-.55.08-1.08.11-1.64.14-.33,0-.69-.08-1.03-.08a7.689,7.689,0,0,1-1.91-.08,3.749,3.749,0,0,0-1.22.11,3.824,3.824,0,0,1-1.58,0,.278.278,0,0,0-.25.06,1.421,1.421,0,0,1-1.16-.03.662.662,0,0,0-.64,0,.823.823,0,0,1-.44.11c-.78,0-1.55-.03-2.3-.03-.39,0-.55-.17-.58-.47-.06-.5.06-.67.47-.8a6.178,6.178,0,0,1,.61-.11Z" fill="#4659a6"/>
        <path id="Path_132" data-name="Path 132" d="M90.26,8.71a1.9,1.9,0,0,1-2.05-.47c-.3.53-.64.55-1.16.53-.69-.06-1.39.11-2.08.11-1.14,0-2.24-.03-3.35-.08-.11,0-.22-.22-.36-.36-.97.75-2.16.3-3.24.42a1.558,1.558,0,0,1-.03-1.16.617.617,0,0,1,.39-.28c.3-.03.61,0,.91,0h6.4c.83,0,1.66-.03,2.49-.03a4.839,4.839,0,0,0,.69.08,4.349,4.349,0,0,0,.89-.14c.33-.06.5.03.5.33.03.36,0,.72,0,1.05Z" fill="#4659a6"/>
        <path id="Path_133" data-name="Path 133" d="M47.77,66.22a1.287,1.287,0,0,1,.39-.19,7.385,7.385,0,0,1,2.3-.17c.25,0,.53.19.83.11.3-.06.61-.08.91-.11a.99.99,0,0,1,1.08.33,2.2,2.2,0,0,1,1.47-.28,5.282,5.282,0,0,0,1.19-.06c.44-.06.75.14.97.69.06-.3.08-.47.11-.67.39.14.86-.06,1.22.3.08.08.36.03.5-.03a3.525,3.525,0,0,1,1.86-.25c-.14.5-.25.91-.36,1.39a3.366,3.366,0,0,1-.78,0,1.189,1.189,0,0,0-.94.03c-.22.11-.64-.14-1.05-.25a1.486,1.486,0,0,1-1.25.28,10.173,10.173,0,0,0-1.83.03,2.46,2.46,0,0,1-.47,0c-.72-.17-1.47.08-2.22-.11-.28-.08-.58.08-.89.08a9.943,9.943,0,0,1-1.64-.03c-.64-.17-1.27-.25-1.41-1.11Z" fill="#4659a6"/>
        <path id="Path_134" data-name="Path 134" d="M65.73,67.27c.03-.44.06-.83.08-1.3.3-.03.61-.08.89-.08,1.69.03,3.38.14,5.1.03.69-.06,1.41,0,2.13,0,1,0,2.02-.03,3.02-.06a2.664,2.664,0,0,1,.55.11v1.3a1.876,1.876,0,0,1-.55.08c-1.11-.25-2.24.14-3.38-.11-.22-.06-.53.22-.69.14-.55-.25-1.08.06-1.61.03s-1.05-.08-1.58-.11a3.391,3.391,0,0,0-.44.08,1.16,1.16,0,0,1-.39.06,16.655,16.655,0,0,0-2.91-.08.36.36,0,0,0-.22-.08Z" fill="#4659a6"/>
        <path id="Path_135" data-name="Path 135" d="M74.66,7.46v1.3c-.53-.19-1.03.22-1.52-.11a.525.525,0,0,0-.5.03,2.08,2.08,0,0,1-1.33.22c-1.25.03-2.49-.14-3.74-.03-.83.06-1.66-.06-2.49-.06-.22,0-.44.08-.67.06-.39-.03-.78-.14-1.16-.19-.33-.06-.42-.28-.39-.58,0-.47.08-.55.58-.61a8.238,8.238,0,0,1,.86-.03c.72-.03,1.47-.06,2.19-.06a3.8,3.8,0,0,1,.58.06,3.8,3.8,0,0,0,1.61-.03c.03-.03.08-.03.14,0,.86.17,1.72-.08,2.55.11a5.716,5.716,0,0,0,1.16-.06c.69-.03,1.39-.03,2.13-.03Z" fill="#4659a6"/>
        <path id="Path_136" data-name="Path 136" d="M72.8,78.69a1.581,1.581,0,0,1,.03,1.11.628.628,0,0,1-.72.42,8.056,8.056,0,0,0-2.3,0c-.86-.03-1.69,0-2.55-.08a24.353,24.353,0,0,0-2.83.06c-.06,0-.08.03-.14,0-.67-.28-1.39.03-2.05-.06a8.184,8.184,0,0,0-.86,0c.14-.47.25-.89.39-1.39a5.826,5.826,0,0,1,.72-.06c.8.03,1.61.08,2.41.08,1.14,0,2.27-.06,3.41-.06a4.923,4.923,0,0,1,2.19.19c.08.06.25-.06.36-.06.67-.06,1.3-.11,1.94-.17Z" fill="#4659a6"/>
        <path id="Path_137" data-name="Path 137" d="M92.45,66.41h-.3c.03-1.33.06-2.63.08-3.96,0-.25.06-.42.36-.44a1.339,1.339,0,0,1-.42-1.11c0-.33.03-.67.06-1,.03-.61.3-.83.89-.72a3.153,3.153,0,0,1,.44.14,2.52,2.52,0,0,1,0,1.44.541.541,0,0,0,.03.3,1.493,1.493,0,0,1,.06.58,12.133,12.133,0,0,0-.03,2.41c-.03.8,0,1.58,0,2.38a2.52,2.52,0,0,1-.06.47,2.52,2.52,0,0,0-.06.47c0,.83.03,1.66.03,2.49.03,1.03.03,1.39-1.36,1.08-.03-.64-.06-1.27-.06-1.91,0-.55.08-1.11.08-1.66a1.023,1.023,0,0,1,.25-.97Z" fill="#4659a6"/>
        <path id="Path_138" data-name="Path 138" d="M47.72,9.04c.17-.55.3-.94.42-1.36,1.36-.03,2.66-.08,3.96-.08,1.25.03,2.49-.11,3.74-.06,1.27.06,2.55-.17,3.88,0,0,.25.03.47.03.67-.03.55-.06.61-.61.64a4.526,4.526,0,0,1-1.64-.03,4.3,4.3,0,0,0-1,.06c-.47,0-.91-.06-1.39-.08-.06,0-.14-.08-.19-.06a4,4,0,0,1-2.13.19c-.72,0-1.47.3-2.16-.11a.35.35,0,0,0-.3,0,2.593,2.593,0,0,1-.64.19C49.11,9.04,48.5,9.04,47.72,9.04Z" fill="#4659a6"/>
        <path id="Path_139" data-name="Path 139" d="M46.28,92.35c-.08-.17-.11-.19-.11-.25-.08-1.05.06-1.22,1.11-1.19.78.03,1.52.11,2.3.11,1.16,0,2.33-.08,3.49-.06a3.969,3.969,0,0,1,2.05.22c.08.06.25-.06.36-.06.55-.06,1.11-.11,1.75-.17-.08.58-.17,1.05-.25,1.55a7.323,7.323,0,0,0-1.08-.11c-.67,0-1.33.08-2,.08s-1.3-.08-1.97-.11c-.36,0-.75.03-1.11.03-.64.03-1.27.03-1.91.03a.823.823,0,0,1-.39-.06,1.137,1.137,0,0,0-.75-.03c-.5.03-1.03,0-1.5,0Z" fill="#4659a6"/>
        <path id="Path_140" data-name="Path 140" d="M23.74,61.4c.44-.03.83-.03,1.25-.06.03.8.08,1.55.08,2.3,0,.97-.03,1.94-.03,2.91a6.151,6.151,0,0,1-.11,1.61,8.162,8.162,0,0,0-.03,1.64c-.03.58,0,1.14,0,1.72a.876.876,0,0,1-1.14.97c-.11-.03-.28-.19-.28-.3-.03-.75-.03-1.5,0-2.24,0-.17.17-.33.28-.53-.36-.25-.3-.64-.25-1.05.06-.61.11-1.22.11-1.83.03-.89-.03-1.77,0-2.66.03-.8.08-1.58.11-2.47Z" fill="#4659a6"/>
        <path id="Path_141" data-name="Path 141" d="M81.95,33.74c-2.66.14-10.2.08-10.75-.08.14-.42.28-.83.42-1.3.67.03,1.33.08,2,.11a.925.925,0,0,0,.3-.03,1.993,1.993,0,0,1,1.16,0c.08.06.22.03.33.03a19.176,19.176,0,0,1,3.94-.14c.75.06,1.5-.03,2.24-.03.47,0,.55.08.5.55-.03.3-.08.58-.14.89Zm-8.34-.67c-.06-.06-.11-.11-.17-.08-.06,0-.08.08-.14.11.06.06.11.11.17.11S73.55,33.13,73.61,33.07Z" fill="#4659a6"/>
        <path id="Path_142" data-name="Path 142" d="M44.11,67.11c-.58,0-1.14-.03-1.72,0-.86.03-1.72.08-2.58.11-.36,0-.75-.03-1.11-.06-.25-.03-.47-.06-.72-.11a2.182,2.182,0,0,1-.61-.19c-.36-.28-.89-.53-1-.89a7.833,7.833,0,0,1-.17-1.94.6.6,0,0,1,.11-.3.652.652,0,0,1,.78-.22.462.462,0,0,1,.25.67.613.613,0,0,0,.06.72c.22.28.36.61.8.72a3.874,3.874,0,0,0,1.88.08,3.754,3.754,0,0,1,1.11,0c.86.03,1.72.03,2.55.08a5.061,5.061,0,0,1,.86.11c.5.11.67.28.61.67a.786.786,0,0,1-.75.64h-.39a.338.338,0,0,0,.03-.08Z" fill="#4659a6"/>
        <path id="Path_143" data-name="Path 143" d="M32.45,91.02a4.345,4.345,0,0,1,2.36.3c.22-.36.58-.3.91-.33.58-.03,1.19.03,1.77,0,.72,0,1.44-.06,2.19-.03,1.05.03,2.11.06,3.19.11.11.44.19.86.3,1.3a1.8,1.8,0,0,1-.36.06,6.227,6.227,0,0,0-2.02.08c-.14.06-.33-.03-.53-.06-.36-.03-.69-.03-1.05-.03a9.348,9.348,0,0,1-2.3-.11,6.846,6.846,0,0,0-1.69.03H32.7a2.376,2.376,0,0,1-.25-1.33Z" fill="#4659a6"/>
        <path id="Path_144" data-name="Path 144" d="M31.14,79.94h-3.1a.923.923,0,0,0-.28.03,5.794,5.794,0,0,1-2.83-.14,3.354,3.354,0,0,1-1.08-.61,1.141,1.141,0,0,1-.44-1.03,4.781,4.781,0,0,1-.06-1.36.649.649,0,0,1,.44-.53c.5-.14.83.11.67.61a1.018,1.018,0,0,0,.19.97c.42.64,1.05.61,1.69.75a.475.475,0,0,0,.28-.03,9.513,9.513,0,0,1,2.77-.03c.53.03,1.05,0,1.58.03a5.061,5.061,0,0,1,.86.11c.44.08.55.22.58.58a.68.68,0,0,1-.58.69,4.993,4.993,0,0,1-.67,0,.093.093,0,0,1-.03-.06Z" fill="#4659a6"/>
        <path id="Path_145" data-name="Path 145" d="M68.2,32.46a.6.6,0,0,1,.08.19q.08,1.16-1.11,1.11a6.957,6.957,0,0,0-1.11.11c-.33.03-.67.06-1,.06-.69,0-1.36,0-2.05-.03-.19,0-.39.03-.58.03a4.962,4.962,0,0,1-1.16-.03A11.772,11.772,0,0,1,60,33.48c-.14.11-.33.36-.55.39a13.86,13.86,0,0,1-1.58,0c.11-.5.19-.94.3-1.41a8.927,8.927,0,0,1,1.94.03c1.03.22,2-.17,2.99-.11.33.03.67-.03,1,.03,1.03.17,2.08-.14,3.1,0,.28,0,.61.03,1,.06Z" fill="#4659a6"/>
        <path id="Path_146" data-name="Path 146" d="M9.11,91.8c-.42-.17-.89-.36-.97-.83a3.594,3.594,0,0,1-.06-2.08.634.634,0,0,1,.83-.33c.36.11.3.42.25.67a1.226,1.226,0,0,0,.86,1.44,4.011,4.011,0,0,0,1.88.11,12.339,12.339,0,0,1,1.72,0c.67.03,1.33.03,1.97.06a5.061,5.061,0,0,1,.86.11c.47.08.64.28.61.69a.721.721,0,0,1-.69.61,8.224,8.224,0,0,1-.86,0,27.391,27.391,0,0,0-4.05.08,6.079,6.079,0,0,1-1.44-.17,7.1,7.1,0,0,1-.78-.14c-.06-.06-.08-.17-.14-.22.03-.19.06-.36.11-.58-.36.19-.3.39-.11.58Z" fill="#4659a6"/>
        <path id="Path_147" data-name="Path 147" d="M92.78,45.63a1.036,1.036,0,0,1-.28-1.39c.25-.53.75-.14,1.19-.25.06,1.27-.06,2.47,0,3.69.03,1.19.03,2.38.03,3.58-.03,1.19-.06,2.38-.11,3.6H92.42a1.8,1.8,0,0,1-.08-.39,25.4,25.4,0,0,1,.08-4.27,5.955,5.955,0,0,0-.08-1.19c0-.78,0-1.55.03-2.3.03-.42-.06-.83.42-1.08Zm-.25,8.2a1.063,1.063,0,0,1,.14.03c0-.08.03-.17.03-.28a.182.182,0,0,1-.11-.03A.821.821,0,0,1,92.53,53.83Z" fill="#4659a6"/>
        <path id="Path_148" data-name="Path 148" d="M48.27,80.08V78.81c.67-.06,1.3-.33,1.88.3a.916.916,0,0,1,.89-.36c1.05-.03,2.11-.03,3.16-.03,1.27.03,2.55.08,3.82.11a1.8,1.8,0,0,1,.36.06v.58c-.03.19-.06.39-.11.67-.22,0-.47.03-.69.03-.39.03-.78.03-1.16.06a1.845,1.845,0,0,1-.39.03,21.75,21.75,0,0,0-2.91-.06,29.737,29.737,0,0,0-3.13-.08,4.357,4.357,0,0,0-1.08.06,1.4,1.4,0,0,1-.64-.08Z" fill="#4659a6"/>
        <path id="Path_149" data-name="Path 149" d="M23.74,52.89c-.3-.19-.22-.64-.22-1.03-.03-.72-.06-1.44-.08-2.16,0-.28.03-.55.06-.86a1.027,1.027,0,0,0,1.3-.5c.08,1.58.19,3.05.25,4.52a4.89,4.89,0,0,1-.14,1.11c0,.06-.06.17-.03.19.42.5.03,1.05.14,1.61a7.279,7.279,0,0,1,.03,1.55c0,.25.06.47.06.72v.8H23.72c-.03-.53-.08-1.03-.08-1.55,0-.69.03-1.36,0-2.05,0-.44-.11-.89-.11-1.3.03-.33.14-.64.22-1.05Z" fill="#4659a6"/>
        <path id="Path_150" data-name="Path 150" d="M8.47,72.37a3.541,3.541,0,0,1-.17-1.58c.06-.67-.06-1.36-.06-2.02V67.19c0-.33-.08-.67-.06-.97a9.312,9.312,0,0,1,.17-.97,2.22,2.22,0,0,1-.19-.91,7.551,7.551,0,0,0-.08-1.5c0-.08.06-.17.08-.3.44.06.86.08,1.36.14.03.17.06.33.08.5.03.58.06,1.14.06,1.72,0,.17.03.36.03.53a5.481,5.481,0,0,0-.17.97,5.816,5.816,0,0,0,.14.97,7.741,7.741,0,0,1,.11,1.19V71.8c0,.36-.11.53-.5.55a1.561,1.561,0,0,0-.8.03Z" fill="#4659a6"/>
        <path id="Path_151" data-name="Path 151" d="M120.5,28.86a25.253,25.253,0,0,0-.03-2.61c-.03-.53.25-1.03.08-1.61a6.075,6.075,0,0,1,.06-1.58c0-.47-.06-.91-.06-1.39,0-.42-.08-.86.39-1.14a1.084,1.084,0,0,1-.22-1.44c.22-.44.72-.14,1.14-.25a5.018,5.018,0,0,1,.11.89c0,1.47,0,2.97-.03,4.43-.03,1.33-.03,2.63-.08,3.96a3.55,3.55,0,0,1-.19.69c-.22.03-.42.06-.64.08a4.875,4.875,0,0,1-.17-.47c-.11.19-.17.33-.25.44-.03-.03-.06-.03-.11-.03Z" fill="#4659a6"/>
        <path id="Path_152" data-name="Path 152" d="M92.17,74.37c.39-.03.75-.03,1.19-.06a15.893,15.893,0,0,1-.14,3.46,1.049,1.049,0,0,0,.25.14c0,.06.03.11,0,.14-.03.28-.08.55-.11.83,0,.61.03,1.25,0,1.86a4.242,4.242,0,0,1-.19.69c.08.11.22.25.22.36-.03.75-.06,1.5-.11,2.33-.44.06-.8.08-1.25.14a2.771,2.771,0,0,1-.11-.64c.06-.8.14-1.61.17-2.44.03-.44-.06-.89-.06-1.33a17.163,17.163,0,0,1,.08-3.58,1.462,1.462,0,0,0,0-.69,2.538,2.538,0,0,1,.06-1.22Z" fill="#4659a6"/>
        <path id="Path_153" data-name="Path 153" d="M28.68,91.05c.08-.06.17-.14.25-.14a5.5,5.5,0,0,1,.67.11v.91c-.17.08-.3.19-.44.25a2.666,2.666,0,0,1-.75.22c-1.25,0-2.52-.06-3.77-.08-1.19-.03-2.36,0-3.55,0a2.518,2.518,0,0,1-1.08-.22c-.22-.11-.36-.42-.55-.69.17-.11.3-.28.44-.3.53-.08,1.05-.14,1.55-.17.89-.03,1.75,0,2.63-.03.36,0,.72-.03.89.19.58-.06,1.03-.11,1.5-.17.39-.03.8-.03,1.19-.03.33,0,.5.14.47.47.03.06.03.11.06.17.17.08.3.14.47-.03a.3.3,0,0,0,.03-.47h0Z" fill="#4659a6"/>
        <path id="Path_154" data-name="Path 154" d="M43.92,78.83c.14-.06.25-.17.39-.14.06,0,.14.19.17.3a.886.886,0,0,1-.06.39c-.14.83-.14.8-1.03.75-.53-.06-1.05,0-1.58-.03-.97-.03-1.94-.06-2.91-.06-.78,0-1.52,0-2.3.06a1.908,1.908,0,0,1-1.75-.8c.33-.69,1.03-.36,1.5-.58.08.14.17.25.22.33a.38.38,0,0,1,.11.03c.03-.11.08-.22.14-.39.97,0,1.94-.03,2.94,0a2.668,2.668,0,0,1,.69.19,7.117,7.117,0,0,1,3.46-.06,3.691,3.691,0,0,1-.06.55q.36-.3.06-.55Z" fill="#4659a6"/>
        <path id="Path_155" data-name="Path 155" d="M89.9,65.97v1.44a5.918,5.918,0,0,1-.67.06c-1.08-.03-2.16-.11-3.24-.11-.91,0-1.83.08-2.74.11a14.953,14.953,0,0,1-1.64,0,3.769,3.769,0,0,1-.72-.14c.11-.33.17-.61.25-.89a.8.8,0,0,1,.86-.47c.42.03.89-.19,1.27.17a.211.211,0,0,0,.19,0,14.643,14.643,0,0,1,4.13-.17h2.3Z" fill="#4659a6"/>
        <path id="Path_156" data-name="Path 156" d="M102.81,8.57c.03-.39.06-.78.06-1.16,1.58-.11,3.1-.14,4.6-.14,1.03,0,2.05.03,3.1,0a1.409,1.409,0,0,1,.97.17.6.6,0,0,1,0,.97,1.47,1.47,0,0,1-1.03.33c-1.41-.03-2.83,0-4.24,0-.58,0-1.14-.06-1.72-.03a3.79,3.79,0,0,1-1.5-.03c-.06-.03-.08-.03-.25-.11Z" fill="#4659a6"/>
        <path id="Path_157" data-name="Path 157" d="M108.94,40.69h-1.25a1.14,1.14,0,0,1-.08-.44,13.734,13.734,0,0,1,.11-1.83c.11-.58-.11-1.11-.03-1.66a11.566,11.566,0,0,0,0-2.63c0-.33.03-.61.5-.75a.755.755,0,0,1-.47-.94c.06-.64.39-.89,1.05-.78.28.06.33.25.33.5,0,.53-.03,1.05-.03,1.58,0,1.05.03,2.13.03,3.19s-.03,2.16-.08,3.24a1.293,1.293,0,0,1-.08.53Z" fill="#4659a6"/>
        <path id="Path_158" data-name="Path 158" d="M107.78,44.8c.39-.03.72-.06,1.11-.11.06.44.14.83.17,1.25,0,.61-.03,1.22-.06,1.83-.03.25-.08.5-.11.78a.715.715,0,0,0,.03.25,3.851,3.851,0,0,1,.08.58,9.843,9.843,0,0,0-.03,1.8,13.074,13.074,0,0,1,.03,1.77c0,.17-.03.3-.03.47a.416.416,0,0,1-.42.42c-.3.03-.61.06-.94.08,0-.22-.03-.39-.03-.55,0-1,.03-2,.03-2.99,0-.25-.03-.5.22-.58a3.288,3.288,0,0,1-.3-.97,12.141,12.141,0,0,1,.19-1.69c0-.06.06-.14.03-.19a3.31,3.31,0,0,1,.03-2.13Z" fill="#4659a6"/>
        <path id="Path_159" data-name="Path 159" d="M9.5,85.95c-.42.08-.78.17-1.19.22a2.838,2.838,0,0,1-.11-1.16,8.517,8.517,0,0,0-.08-1.41c.03-1.19.14-2.36.17-3.55a10.791,10.791,0,0,0-.03-1.39,5.781,5.781,0,0,1-.03-.72c.03-.3.08-.61.14-.94H9.64a9.892,9.892,0,0,1,.08,1.33c0,.67-.08,1.36-.11,2.02a1.225,1.225,0,0,1-.14.47c-.03.08-.08.19-.06.22a1.688,1.688,0,0,1,.08,1.11,17.117,17.117,0,0,1-.08,2.58,5.273,5.273,0,0,0,.08,1.22Z" fill="#4659a6"/>
        <path id="Path_160" data-name="Path 160" d="M105.31,66.86h-.33v.44c-.06.06-.11.11-.17.11a1.276,1.276,0,0,1-.33.06c-.8-.03-1.61-.06-2.41-.08-.14,0-.25.03-.39.03-.33,0-.67.03-.97.03-.64,0-1.27.03-1.88,0a4.885,4.885,0,0,1-.94-.19c-.44.3-1.03.11-1.69.11.17-.47.3-.83.44-1.27.64-.03,1.3-.08,1.97-.08.58-.03,1.19.03,1.77,0,.33-.03.61-.03.78.17.36-.06.72-.22.97-.14a10.173,10.173,0,0,0,1.83.03c.19.03.39,0,.61.03.53.03.61.11.75.78Z" fill="#4659a6"/>
        <path id="Path_161" data-name="Path 161" d="M36.6,48.56a2.5,2.5,0,0,1-.06-.39,2.84,2.84,0,0,0-.08-1.5c-.03-.03-.03-.08-.03-.14,0-.8.06-1.58.03-2.38,0-.78-.08-1.58-.11-2.36a5.267,5.267,0,0,1,.03-1.19.993.993,0,0,1,.5-.55,2.626,2.626,0,0,1,.86-.08c.03.17.11.28.08.39a8.366,8.366,0,0,0-.03,2c0,.36.11.69.11,1.05.03.94,0,1.88.03,2.83,0,.53.03,1.05.03,1.58,0,.5-.03.53-.5.61a4.065,4.065,0,0,1-.86.14Z" fill="#4659a6"/>
        <path id="Path_162" data-name="Path 162" d="M46.86,32.57c2.8-.14,5.54-.19,8.37-.06-.08.5-.17.94-.25,1.44-.75-.14-1.47.06-2.11-.36-.11.08-.22.22-.33.22-.61.06-1.22.06-1.86.08-.89.03-1.77.08-2.63.11-1.03.03-1.44-.14-1.19-1.44Z" fill="#4659a6"/>
        <path id="Path_163" data-name="Path 163" d="M9.55,58.43c-.53.08-.91.14-1.36.19a8.017,8.017,0,0,1-.11-2.02c.06-1.27.14-2.55.17-3.82.03-.89.11-1.75.17-2.63.03-.36.14-.67.58-.69a.808.808,0,0,1,.42.75c.08.69.14,1.41.17,2.11a5.766,5.766,0,0,1,0,.72.784.784,0,0,1-.06.39c-.36.33-.17.72-.17,1.05.06,1.33.11,2.63.19,3.96Z" fill="#4659a6"/>
        <path id="Path_164" data-name="Path 164" d="M92.89,7.38c2.61-.28,5.18.08,7.73-.11a1.611,1.611,0,0,1,.08,1.19c-.03.22-.22.3-.44.28a9.329,9.329,0,0,1-2.36-.06c-1.25.28-2.52-.14-3.8.11-1.27.22-1.41,0-1.22-1.41Z" fill="#4659a6"/>
        <path id="Path_165" data-name="Path 165" d="M37.82,51.72c.06.61.11,1.05.11,1.47,0,.67-.08,1.36-.14,2.02a3.7,3.7,0,0,1-.14.55.76.76,0,0,0-.06.25,15.611,15.611,0,0,1,.03,3.55c-.03.3,0,.58,0,.91-.36.06-.67.14-.97.17-.25.03-.44-.17-.36-.36.22-.5-.06-1,0-1.5a11.429,11.429,0,0,0,.06-2.11,28.109,28.109,0,0,0,.06-3.44,3.127,3.127,0,0,1,0-.53c.03-.22.11-.39.39-.39a.985.985,0,0,0,1.03-.61Z" fill="#4659a6"/>
        <path id="Path_166" data-name="Path 166" d="M120.41,40.8a2.9,2.9,0,0,1-.06-.39c.03-1.19.14-2.38.11-3.55a13.205,13.205,0,0,1-.08-1.88,5.625,5.625,0,0,1,.14-.69.7.7,0,0,0,0-.25c-.28-.42-.08-.8,0-1.22.42-.08.78-.19,1.25-.3a5.537,5.537,0,0,1,.08.67c0,.53-.03,1.05-.06,1.58-.03.3-.06.61-.08.91v.3a2.557,2.557,0,0,1,.06.44,8.263,8.263,0,0,0,0,1.86c.08.61.03,1.22.06,1.86a.446.446,0,0,1-.42.5c-.3.06-.64.11-1,.17Z" fill="#4659a6"/>
        <path id="Path_167" data-name="Path 167" d="M24.66,41.72a18.127,18.127,0,0,1,.14,4.07c-.44-.06-.83-.08-1.27-.14-.03-.3-.08-.55-.08-.8a18.565,18.565,0,0,1,.06-2.24c.08-.78.03-1.55.11-2.33.06-.78.11-1.55.17-2.3a.823.823,0,0,1,.11-.44.61.61,0,0,1,.42-.25.422.422,0,0,1,.3.28,10.121,10.121,0,0,1,.3,1.61,8.729,8.729,0,0,1-.03,1.77,2.12,2.12,0,0,1-.22.78Z" fill="#4659a6"/>
        <path id="Path_168" data-name="Path 168" d="M121.44,56.44c.03.06.17.17.17.28,0,1-.08,1.97-.06,2.97a1.022,1.022,0,0,1-.75,1.05c-.28,0-.17-.47-.5-.33a1.88,1.88,0,0,1-.19-.53,10.791,10.791,0,0,1,.03-1.39c.06-.8.14-1.61.19-2.44.03-.42-.06-.86-.06-1.27V53.26c.06-.06.08-.08.14-.08,1.11-.14,1.16-.11,1.19,1,0,.39.03.8,0,1.19a5.524,5.524,0,0,1-.17,1.08Z" fill="#4659a6"/>
        <path id="Path_169" data-name="Path 169" d="M121.74,43.33c-.22,2.33.11,4.63-.17,6.98-.44-.06-.83-.11-1.25-.17V45.93c0-.5.03-1,0-1.5-.03-.89.08-1.05.94-1.11a2.385,2.385,0,0,1,.47,0Z" fill="#4659a6"/>
        <path id="Path_170" data-name="Path 170" d="M28.21,91.58c-.03-.06-.03-.11-.06-.17.19-.11.36-.25.55-.36l-.03-.03a.687.687,0,0,1-.47.55Z" fill="#4659a6"/>
        <path id="Path_171" data-name="Path 171" d="M36.94,31.74c.08-.03.14-.08.19-.08.03,0,.06.08.06.14,0,.03-.08.08-.11.06a.667.667,0,0,0-.14-.11Z" fill="#4659a6"/>
        <path id="Path_172" data-name="Path 172" d="M12.74,33.82c-.17-.03-.33-.03-.58-.06.08-.14.11-.22.22-.42.14.19.25.33.36.47h0Z" fill="#4659a6"/>
        <path id="Path_173" data-name="Path 173" d="M12.05,33.13s.06.06.08.06a.57.57,0,0,1-.11.11.152.152,0,0,1-.06-.11c.03,0,.06-.03.08-.06Z" fill="#4659a6"/>
        <path id="Path_174" data-name="Path 174" d="M28.01,21.6a4.233,4.233,0,0,1-.47-.17c.33-.11.42,0,.47.17Z" fill="#4659a6"/>
        <path id="Path_175" data-name="Path 175" d="M121.08,13.81a.943.943,0,0,1-.11-.17c.06-.03.08-.06.14-.06.03,0,.08.06.08.08a.673.673,0,0,1-.11.14Z" fill="#4659a6"/>
        <path id="Path_176" data-name="Path 176" d="M73.6,33.07a.916.916,0,0,0-.11.14c-.06-.03-.11-.08-.17-.11.06-.03.08-.11.14-.11C73.49,32.96,73.54,33.02,73.6,33.07Z" fill="#4659a6"/>
        <path id="Path_177" data-name="Path 177" d="M9.11,91.8c-.19-.19-.22-.39.11-.58a2.181,2.181,0,0,0-.11.58Z" fill="#4659a6"/>
        <path id="Path_178" data-name="Path 178" d="M92.53,53.83a2.414,2.414,0,0,0,.08-.25.182.182,0,0,1,.11.03c0,.08-.03.17-.03.28a1.617,1.617,0,0,1-.17-.06Z" fill="#4659a6"/>
        <path id="Path_179" data-name="Path 179" d="M28.21,91.58a.586.586,0,0,0,.47-.55.36.36,0,0,1,0,.53c-.17.17-.33.08-.47.03Z" fill="#4659a6"/>
        <path id="Path_180" data-name="Path 180" d="M43.92,78.83q.3.25-.06.55a3.838,3.838,0,0,0,.06-.55Z" fill="#4659a6"/>
      </g>
    </g>
  </g>
</svg>
