<svg xmlns="http://www.w3.org/2000/svg" xmlns:xlink="http://www.w3.org/1999/xlink" width="140" height="105" viewBox="0 0 140 105">
  <defs>
    <clipPath id="clip-path">
      <rect id="Rectangle_6" data-name="Rectangle 6" width="140" height="105" fill="none"/>
    </clipPath>
  </defs>
  <g id="no-shapes-to-display" clip-path="url(#clip-path)">
    <g id="Group_14" data-name="Group 14">
      <path id="Path_85" data-name="Path 85" d="M130.82,81.09c1.06,0,.76,6.7,2.33,8.36s5.94,1.74,5.94,2.63-5.05,2.04-6.19,3.99-1.82,7.6-2.55,7.6-1.14-5.94-3.09-7.54c-1.95-1.57-6.62-2.5-6.62-3.09s4.53-.76,6.4-2.71c1.9-1.9,2.71-9.23,3.77-9.23Z" fill="#ecedfb"/>
      <path id="Path_86" data-name="Path 86" d="M21.37,36.39a1.473,1.473,0,0,1,1.17-.38h93.98a2.561,2.561,0,0,1,1,.16,2.636,2.636,0,0,1,.84.79l14.28,17.23a2.071,2.071,0,0,1,.62,1c.05.46-.52,1.22-.52,1.22l-14.03,17.4a1.953,1.953,0,0,1-1,.79,37.331,37.331,0,0,1-5.32.27c-2.12.05-87.39,0-87.39,0s-2.06-.05-2.58-.84a1.6,1.6,0,0,1,.43-2.01c.43-.46,11.75-15.93,11.75-15.93S21.57,38.37,21.36,37.8s-.27-1.17,0-1.41Z" fill="#ecedfb"/>
      <circle id="Ellipse_16" data-name="Ellipse 16" cx="12.21" cy="12.21" r="12.21" transform="translate(75.95 1.33)" fill="#ecedfb"/>
      <circle id="Ellipse_17" data-name="Ellipse 17" cx="3.12" cy="3.12" r="3.12" transform="translate(0.9 18.32)" fill="#ecedfb"/>
      <g id="Group_13" data-name="Group 13">
        <path id="Path_87" data-name="Path 87" d="M28.31,6.32c-.46.68-.9,1.22-1.28,1.79s-.76,1.11-1.09,1.71a11.622,11.622,0,0,1-1.11,1.68,7.7,7.7,0,0,0-1.09,1.76c-.27-.11-.49-.19-.71-.3-.19-.08-.38-.16-.65-.3.41-.62.79-1.22,1.19-1.82.43-.68.87-1.33,1.33-1.98a2.1,2.1,0,0,1,.49-.43,3.174,3.174,0,0,1,.3-.79,16.738,16.738,0,0,1,1.14-1.41,4.846,4.846,0,0,1,.71-.52c.22-.84.27-.92.87-.9.52,0,.57.11.79.98.65.11.92.71,1.28,1.17.33.43.92.76.76,1.38a4.46,4.46,0,0,1,.62.6,26.988,26.988,0,0,1,1.9,2.8c.3.57.79.98,1.09,1.57a3.206,3.206,0,0,1-1.17.87c-.19-.3-.35-.57-.52-.84a6.57,6.57,0,0,0-.71-1.19,3.814,3.814,0,0,1-.73-1.11,8.5,8.5,0,0,0-.84-1.11c-.05-.08-.16-.16-.19-.27a3.2,3.2,0,0,0-.71-1.17c-.27-.38-.52-.79-.79-1.19a7.929,7.929,0,0,1-.9-.98Z" fill="#4659a5"/>
        <path id="Path_88" data-name="Path 88" d="M86.39,65.38c-.27.19-.62.05-1.03-.03a8.136,8.136,0,0,0-1.41-.11c-.62-.05-1.28-.08-1.9-.11-.19,0-.41.03-.62.03a2.108,2.108,0,0,1-.35-.05,5.03,5.03,0,0,1-.65-.14V63.61a3.943,3.943,0,0,0,1.82.14,18.209,18.209,0,0,1,2.06.16c.24.03.46-.03.71,0,.65.08,1.28.14,1.93.27a5.045,5.045,0,0,1,.84.35s.14-.14.22-.11c.9.3,1.87.14,2.74.6.24.14.41.24.33.52-.05.24-.11.52-.16.84a39.768,39.768,0,0,1-4.51-1Z" fill="#4659a5"/>
        <path id="Path_89" data-name="Path 89" d="M66.96,67.55c-.16-.38-.3-.76-.46-1.19a1.78,1.78,0,0,1,.43-.14.725.725,0,0,0,.68-.3c.05-.05.14-.14.22-.14.84-.11,1.57-.62,2.42-.71a6.752,6.752,0,0,0,.73-.22c.52-.11,1-.22,1.52-.3.27-.05.52-.14.79-.19.9-.22,1.82-.33,2.74-.46a.413.413,0,0,1,.52.43c.03.27.08.54.11.9a49.316,49.316,0,0,0-4.91.84c-1.57.49-3.12.98-4.78,1.47Z" fill="#4659a5"/>
        <path id="Path_90" data-name="Path 90" d="M14.72,24.45c.49.19.92.35,1.3.49-.52.87-.98,1.68-1.44,2.5a.511.511,0,0,1-.11.16,2.013,2.013,0,0,0-.57.79,4.278,4.278,0,0,1-.49.98c-.19.3-.43.6-.62.9a1.128,1.128,0,0,0-.08.24c-.35.9-.71,1.79-1.11,2.74-.49-.19-.9-.35-1.3-.49a40.127,40.127,0,0,1,4.42-8.3Z" fill="#4659a5"/>
        <path id="Path_91" data-name="Path 91" d="M63.35,67.77c.22.3.46.62.73,1.03-.92.52-1.85.95-2.69,1.49-.87.52-1.71,1.09-2.52,1.68s-1.57,1.25-2.42,1.95c-.35-.27-.73-.54-1.14-.84a10.032,10.032,0,0,1,1.85-1.47,9.037,9.037,0,0,0,1.11-.92,8.278,8.278,0,0,1,2.55-1.63,1.166,1.166,0,0,0,.38-.24,6.225,6.225,0,0,1,1.98-1.06c.03-.05.08-.03.16,0Z" fill="#4659a5"/>
        <path id="Path_92" data-name="Path 92" d="M22.02,68.74a6.039,6.039,0,0,1,.3-.73c.27-.65.52-.76,1.22-.57.6.16,1.17.33,1.76.46.27.05.57.08.84.11.33.05.68.08,1,.16a6.562,6.562,0,0,0,2.42.03c.43-.08.87-.11,1.38-.19.11.52.22.95.33,1.38a2.045,2.045,0,0,1-1.49.27c-.22-.03-.46.03-.68,0a16,16,0,0,1-3.01-.16,16.2,16.2,0,0,0-1.74-.24c-.6-.08-1.19-.19-1.79-.27a4.559,4.559,0,0,1-.54-.24Z" fill="#4659a5"/>
        <path id="Path_93" data-name="Path 93" d="M72.99,100.33c-.11.43-.19.79-.3,1.19a10.7,10.7,0,0,1-1.17-.14c-.84-.19-1.68-.43-2.52-.68-.3-.08-.57-.16-.87-.24a1.256,1.256,0,0,1-.49-.19,1.271,1.271,0,0,0-1.17-.41c-.24,0-.46-.19-.71-.3-.65-.24-1.28-.49-1.93-.73a2.926,2.926,0,0,1-.27-.19c.27-.35.52-.68.79-1.03,1.47.54,2.85,1.11,4.29,1.55,1.41.43,2.85.76,4.34,1.17Z" fill="#4659a5"/>
        <path id="Path_94" data-name="Path 94" d="M111.06,80.77c-.43.14-.76.27-1.14.38-.41-.73-.79-1.41-1.19-2.12-.22-.35-.43-.71-.65-1.03-.03-.05-.11-.08-.14-.14a22,22,0,0,0-2.31-2.96,9.389,9.389,0,0,0-1.03-1.06c.05-.11.05-.16.08-.22.54-.57.6-.98,1.44-.08a21.323,21.323,0,0,1,2.17,2.58c.38.54.76,1.06,1.14,1.57a9.422,9.422,0,0,1,1.22,2.33,3.149,3.149,0,0,0,.41.73Z" fill="#4659a5"/>
        <path id="Path_95" data-name="Path 95" d="M43.48,62.66a6.556,6.556,0,0,1,1.19-1.55,9.4,9.4,0,0,0,1.57-2.17c.27-.54.62-1.09.9-1.63a2.852,2.852,0,0,0,.24-.65c.19-.95.57-1.19,1.52-.84a.182.182,0,0,1,.05.11c-.27.87-.22,1.85-.87,2.61a8.968,8.968,0,0,0-.84,1.49,2.511,2.511,0,0,1-.9,1.17c-.03.03-.08.05-.08.08-.16.92-1.11,1.22-1.49,1.98a.289.289,0,0,1-.46.05c-.27-.22-.54-.43-.84-.65Z" fill="#4659a5"/>
        <path id="Path_96" data-name="Path 96" d="M44.73,32.16a2.677,2.677,0,0,1-.57-1.19,3.625,3.625,0,0,0-.52-1.09,4.736,4.736,0,0,1-.92-1.85v-.05a6.775,6.775,0,0,1-1.66-2.47.919.919,0,0,0-.22-.22c-.27-.27-.27-.35.05-.6.03,0,.03-.03.05-.03.9-.6.9-.57,1.44.35.49.87,1.06,1.66,1.55,2.52.65,1.22,1.25,2.44,1.9,3.66.16.33.05.49-.24.6s-.54.24-.87.35Z" fill="#4659a5"/>
        <path id="Path_97" data-name="Path 97" d="M94.07,67.44c.19-.46.33-.81.49-1.19a5.241,5.241,0,0,1,1.44.6c.41.3.98.22,1.3.52.38.35.9.27,1.28.65a5.238,5.238,0,0,0,1.33.76c.43.24,1,.38,1.28.73.35.43.95.41,1.22.9-.08.43-.46.68-.73,1.06-.33-.22-.65-.43-.98-.62-1.09-.65-2.14-1.3-3.26-1.9a23.172,23.172,0,0,0-2.36-1c-.3-.14-.6-.3-1-.49Z" fill="#4659a5"/>
        <path id="Path_98" data-name="Path 98" d="M9.32,35.47c.43.08.84.16,1.33.27-.14.49-.22.9-.35,1.3a18.361,18.361,0,0,0-1.17,5.29,8.81,8.81,0,0,1-.35,1.55c-.11.05-.14.08-.16.05-1.33-.35-1.25-.11-.98-1.52a1.447,1.447,0,0,1,.52-.92,3.552,3.552,0,0,0-.27-.35,22.4,22.4,0,0,1,1.44-5.67Z" fill="#4659a5"/>
        <path id="Path_99" data-name="Path 99" d="M98.9,97.95c-.3-.38-.54-.68-.84-1.06a5.72,5.72,0,0,1,.98-.65,12.564,12.564,0,0,0,2.31-1.44c.95-.68,1.85-1.41,2.74-2.14a7.8,7.8,0,0,0,.87-1c.43.3.76.54,1.11.79a9.457,9.457,0,0,1-2.2,2.09c-.79.57-1.38,1.44-2.42,1.68-.62.9-1.74,1-2.55,1.74Z" fill="#4659a5"/>
        <path id="Path_100" data-name="Path 100" d="M34.34,67.49c.33-.11.54-.22.76-.27.16-.05.38-.14.52-.08.41.22.65,0,.98-.19a4.731,4.731,0,0,1,.84-.33c.3-.11.62-.22.9-.35.76-.43,1.55-.87,2.28-1.36.65-.43,1.09-.08,1.55.3,0,.65-.54.87-.95,1.14a19.843,19.843,0,0,1-4.32,2.04,12.708,12.708,0,0,1-2.04.41.339.339,0,0,1-.43-.35c-.05-.35-.05-.65-.08-.95Z" fill="#4659a5"/>
        <path id="Path_101" data-name="Path 101" d="M45.82,34.74c.38-.16.76-.35,1.25-.57.16.46.3.84.43,1.25.27.9.57,1.76.81,2.66.22.81.33,1.63.49,2.47.03.08-.03.19.03.24.22.27.05.46-.19.68.14.11.24.16.33.24.22.24.16.52-.14.57a9.879,9.879,0,0,1-1.17.19c-.14-2.69-1.25-5.08-1.85-7.73Z" fill="#4659a5"/>
        <path id="Path_102" data-name="Path 102" d="M76.32,102.07c.11-.43.19-.79.3-1.14h3.31c.43.08.84.33,1.28.03.43.22.87,0,1.33,0a12.5,12.5,0,0,0,1.52-.11c.43-.03.49.03.54.43.03.24.05.46.08.73a8.768,8.768,0,0,1-3.07.27,21.8,21.8,0,0,0-2.42.03,3.959,3.959,0,0,1-1.14,0,6.908,6.908,0,0,0-1.03-.11,2.277,2.277,0,0,1-.71-.14Z" fill="#4659a5"/>
        <path id="Path_103" data-name="Path 103" d="M48.29,52.89V51.83a17.832,17.832,0,0,0,.05-1.79c0-.79-.08-1.6-.11-2.39-.03-.68-.08-1.33-.11-2.01a.784.784,0,0,1,.57-.84c.19-.05.38-.11.65-.16.05.62.14,1.19.16,1.76.05,1.6.08,3.2.14,4.8,0,.43.03.87.03,1.3-.03.6-.08.65-.65.54-.22-.05-.43-.11-.73-.16Z" fill="#4659a5"/>
        <path id="Path_104" data-name="Path 104" d="M17.78,22.17c-.38-.19-.76-.41-1.17-.6a2.92,2.92,0,0,1,.84-1.38,1.947,1.947,0,0,0,.41-.6,23.043,23.043,0,0,1,2.28-3.83,1.29,1.29,0,0,1,.3-.27c.41.14.79.24,1.28.41-.19.35-.35.68-.54.98-.08.14-.19.3-.27.43a3.437,3.437,0,0,1-.41.65,12.463,12.463,0,0,0-1.68,2.8c-.3.46-.65.9-1.03,1.41Z" fill="#4659a5"/>
        <path id="Path_105" data-name="Path 105" d="M20.12,66.92c-.22.46-.38.84-.6,1.28-.3-.11-.57-.19-.84-.3a10.99,10.99,0,0,1-2.8-1.41,2.639,2.639,0,0,0-.79-.43.6.6,0,0,1-.41-.43c-.08-.19-.35-.33-.57-.46-.19-.11-.38-.19-.54-.3a.52.52,0,0,1-.16-.65,3.854,3.854,0,0,1,.6-.76c.11.08.16.08.16.11.05.46.22.81.81.71.11-.03.27.08.41.16a9.9,9.9,0,0,0,2.39,1.41c.08.03.14.11.22.16a2.965,2.965,0,0,0,1.33.62c.24.08.46.19.79.3Z" fill="#4659a5"/>
        <path id="Path_106" data-name="Path 106" d="M7.36,54.52c-.54-1.17-.35-6.16-.16-7.41.38-.05.79-.11,1.28-.19a39.853,39.853,0,0,0,.03,7.41,1.409,1.409,0,0,1-1.14.19Z" fill="#4659a5"/>
        <path id="Path_107" data-name="Path 107" d="M40.23,21.71c-.41.3-.73.54-1.06.79a1.063,1.063,0,0,1-.27-.22c-.46-.76-.95-1.52-1.38-2.31a11.494,11.494,0,0,1-.6-1.28.482.482,0,0,0-.16-.22,4.566,4.566,0,0,1-1.22-1.79c.33-.24.65-.49.98-.73.54.24.73.79,1,1.22.49.81.95,1.66,1.36,2.5.22.43.62.68.81,1.11.16.3.35.57.54.92Z" fill="#4659a5"/>
        <path id="Path_108" data-name="Path 108" d="M61.45,95.96c-.08.16-.11.24-.16.33-.49.79-.76.87-1.55.3a15.591,15.591,0,0,1-2.52-1.98,5.769,5.769,0,0,0-.79-.54c-.41-.3-.81-.62-1.19-.95-.08-.05-.11-.19-.19-.35.38-.27.73-.52,1.11-.81a30.629,30.629,0,0,0,5.29,4.02Z" fill="#4659a5"/>
        <path id="Path_109" data-name="Path 109" d="M91.52,100.66a5.717,5.717,0,0,1-3.28.84c-.03-.16-.05-.35-.08-.54-.08-.65-.03-.73.65-.84.73-.11,1.41-.38,2.12-.52.98-.19,1.87-.62,2.82-.9.27-.08.52-.19.79-.3.3.35.6.68.92,1.03a14.362,14.362,0,0,1-2.85,1.03c-.27.03-.52.3-.84.24-.08.03-.19-.03-.24-.05Z" fill="#4659a5"/>
        <path id="Path_110" data-name="Path 110" d="M52.93,75.47c.43.33.68.54.95.76.05.57-.41.87-.65,1.25-.24.41-.43.9-.9,1.11,0,.54-.52.73-.71,1.17a19.869,19.869,0,0,1-1.06,1.98,1.035,1.035,0,0,1-1.03.27.48.48,0,0,1-.22-.3,1.348,1.348,0,0,1,.11-.49,19.05,19.05,0,0,1,1.25-2.47c.35-.49.49-1.09,1-1.47.27-.19.38-.57.57-.84.27-.3.62-.43.68-.98Z" fill="#4659a5"/>
        <path id="Path_111" data-name="Path 111" d="M9.18,56.58a15.642,15.642,0,0,0,3.2,4.94v.11c-.22.38-.38.87-.87.87-.54,0-.79-.54-1.03-.95a1.746,1.746,0,0,0-.35-.49,2.021,2.021,0,0,1-.49-.6,22.77,22.77,0,0,0-1.38-2.39c-.48-.79-.33-1.11.57-1.41a2.852,2.852,0,0,0,.35-.08Z" fill="#4659a5"/>
        <path id="Path_112" data-name="Path 112" d="M49.27,84.67c1.06-.3,1.28-.33,1.74.57.19.35.35.73.52,1.11a2.009,2.009,0,0,0,.19.35c.3.41.62.81.92,1.22.33.43.62.87.92,1.3.27.35.24.54-.14.81-.19.14-.41.24-.57.35a20.136,20.136,0,0,1-3.58-5.73Z" fill="#4659a5"/>
        <path id="Path_113" data-name="Path 113" d="M108.54,89.53c-.38-.22-.71-.43-1.06-.62a1.448,1.448,0,0,1,.16-.38,14.326,14.326,0,0,0,1.44-2.36c.27-.49.52-1,.73-1.49a.911.911,0,0,1,.71-.65,5.484,5.484,0,0,0,1.17-.41,25.949,25.949,0,0,1-3.15,5.92Z" fill="#4659a5"/>
      </g>
    </g>
  </g>
</svg>
