<svg xmlns="http://www.w3.org/2000/svg" xmlns:xlink="http://www.w3.org/1999/xlink" width="140" height="105" viewBox="0 0 140 105">
  <defs>
    <clipPath id="clip-path">
      <rect id="Rectangle_8" data-name="Rectangle 8" width="140" height="105" fill="none"/>
    </clipPath>
  </defs>
  <g id="upgrade-storage" clip-path="url(#clip-path)">
    <g id="Group_18" data-name="Group 18">
      <g id="Group_17" data-name="Group 17">
        <path id="Path_181" data-name="Path 181" d="M83.21,72.44a4.022,4.022,0,0,1,.71-.1c.3,0,.58.03.89.03a13.074,13.074,0,0,0,1.77-.03,8.056,8.056,0,0,1,1.77,0c.25.03.51-.13.76-.13.81,0,1.59.03,2.4.03.51,0,1.01-.1,1.49-.1.53,0,1.04.08,1.57.1a8.551,8.551,0,0,0,1.24,0c.4,0,.83-.05,1.29-.08-.03-.48.35-.86.05-1.32-.05-.05-.03-.15-.03-.23,0-.4-.03-.81,0-1.19,0-.25-.15-.53.18-.71.03-.03.05-.08.03-.1-.35-.61.25-.89.48-1.26.2-.33.43-.28.68,0a1.415,1.415,0,0,1,.38,1.04,27.4,27.4,0,0,0,.05,3.01c.03.28-.28.48-.13.78.18.33-.28.4-.35.68a4.229,4.229,0,0,1,.23.38c.05.08.13.18.13.25,0,.71-.03,1.39-.05,2.1,0,.33.03.66,0,.96,0,.33-.03.63-.03.96,0,.28.03.56.03.83,0,.33-.03.63-.03.96,0,.15-.03.33-.03.48.03.86.05,1.72.05,2.61,0,1.14-.05,2.28-.1,3.42a1.544,1.544,0,0,1-.23.53c.05.05.23.15.23.28a3.663,3.663,0,0,1-.2,1.57.691.691,0,0,0,0,.51.89.89,0,0,1,0,.81c-.03.05,0,.15,0,.23a10.2,10.2,0,0,1,.1,1.24c0,.91-.1,1.82-.03,2.73a10.816,10.816,0,0,1-.13,2.61.405.405,0,0,0,.05.3,2.707,2.707,0,0,1,0,1.44,3.261,3.261,0,0,0-.05.89.577.577,0,0,1-.23.46,1.922,1.922,0,0,1-1.47.56c-1.77-.03-3.54.03-5.34.03-1.32,0-2.66-.03-3.97-.03-.96,0-1.95.03-2.91,0-.99-.03-1.95-.08-2.93-.1-.71-.03-1.42.03-2.13.03-.96,0-1.95.03-2.91.03-.35,0-.73.05-1.09.05-.23,0-.48-.05-.71-.05H71.68c-.94,0-1.85-.03-2.78-.05-.05,0-.13-.05-.18-.03a8.286,8.286,0,0,1-2.63,0c-.51,0-1.01.13-1.49.08a7.93,7.93,0,0,0-2.23-.05,16.392,16.392,0,0,1-1.85.03,4.861,4.861,0,0,1-.66-.03c-.53,0-1.09-.03-1.62-.03a6.507,6.507,0,0,1-1.87,0,4.578,4.578,0,0,0-1.32.08c-.51,0-1.01-.05-1.54-.05s-1.14.03-1.7.05c-.08,0-.15.03-.23.03-.89-.03-1.77-.08-2.66-.08a23.04,23.04,0,0,0-2.35.05,3.371,3.371,0,0,1-1.44-.13.629.629,0,0,1-.25-.18,5.059,5.059,0,0,1-.96.25c-.51.03-1.01-.03-1.52-.03a16.447,16.447,0,0,1-2.53.05A14.6,14.6,0,0,0,38,99.84c-.63,0-1.24-.05-1.87-.05-.48,0-.96.05-1.44.05-.51,0-1.01-.05-1.49-.08a2.361,2.361,0,0,0-.35-.03,10.349,10.349,0,0,1-2.78-.05,4.14,4.14,0,0,1-.61,0c-.61-.03-1.24-.03-1.85-.1a.933.933,0,0,1-.78-.76,3.421,3.421,0,0,1-.13-.89c0-.86.13-1.75.05-2.61-.1-1.06.08-2.13-.03-3.19a7.4,7.4,0,0,1-.05-1.82,10.956,10.956,0,0,0,.03-1.62c0-1.16-.03-2.33-.03-3.52,0-.53.05-1.09.05-1.62,0-.18-.05-.35-.05-.51,0-.38.05-.76.05-1.14,0-.33-.03-.68-.05-1.01,0-.08-.03-.15-.03-.23.03-1.04.03-2.05.08-3.06a1.515,1.515,0,0,0-.05-.76,1.211,1.211,0,0,1-.05-.43c0-1.09.03-2.18.03-3.26,0-.3.13-.51.53-.56a.8.8,0,0,1-.46-.86c0-.99.03-2,.03-2.99a1.269,1.269,0,0,0-.03-.35c-.25-.83-.15-1.14.91-1.52a3.838,3.838,0,0,1,.63,1.9c0,.48.05.96.05,1.44,0,.23-.03.48-.03.71,0,.35-.03.68-.03,1.04,0,.3.15.43.48.4.48-.05.96-.08,1.44-.1.51-.03.99-.03,1.49-.03h.05c.51.2,1.04-.08,1.54,0a9.791,9.791,0,0,0,1.54.05c.53,0,1.09-.03,1.62-.05.66-.03,1.32-.08,1.95-.08.71,0,1.42.03,2.13.05.3,0,.58,0,.89.03,1.04.03,2.05-.08,3.09.05a10.339,10.339,0,0,0,1.57-.03,16.665,16.665,0,0,1,2.45-.03,25.885,25.885,0,0,0,2.78-.05c.4,0,.83-.15,1.24.13.03.03.1,0,.18,0,.48-.03.96-.05,1.44-.05a8.01,8.01,0,0,1,1.19-.05,10.9,10.9,0,0,1,1.24.18c.15.03.23.05.35-.08a.854.854,0,0,1,.51-.1c.33,0,.66.03.96.05.48.03.61.1.73.56a1.609,1.609,0,0,1,.08.48c0,.46-.08.51-.51.58a3.2,3.2,0,0,1-1.54-.05,1.006,1.006,0,0,0-.3,0,10.843,10.843,0,0,1-3.01-.05c-.05,0-.13-.05-.18-.03a6.8,6.8,0,0,1-2.38.08c-.43,0-.89.08-1.32.1a.935.935,0,0,1-1.01-.43c-.13.18-.2.4-.3.43a1.211,1.211,0,0,1-.63-.08c-.23-.1-.43-.23-.63,0-.05.05-.15.03-.23.03-.63,0-1.29,0-1.92.03-.23,0-.43.05-.66.05h-.35c-.15,0-.33-.08-.46-.03a4.514,4.514,0,0,1-1.97-.03,4.936,4.936,0,0,0-.68.03,5.689,5.689,0,0,1-1.97.03c-.73-.15-1.44.05-2.15-.05a17.768,17.768,0,0,0-2.3.03c-1.01.03-2.02.03-3.01.03a2.516,2.516,0,0,1-.63-.1.3.3,0,0,1-.1-.05c-.33.43-.73.03-1.09.05a6.991,6.991,0,0,1-1.21.03.321.321,0,0,0-.38.28.593.593,0,0,0,0,.23,15.51,15.51,0,0,0,.1,2.63,4.349,4.349,0,0,1,0,1.14c0,.63-.03,1.29-.03,1.92a16.549,16.549,0,0,1-.03,1.72c-.13,1.26.23,2.53-.05,3.79a4.85,4.85,0,0,0,.08.83c.03.35,0,.73,0,1.09,0,.33-.03.66-.05,1.01a25.966,25.966,0,0,1-.03,2.93,20.59,20.59,0,0,0,.08,2.23c0,.74.03,1.49-.03,2.23a17.781,17.781,0,0,0,.05,1.92.377.377,0,0,0,.43.43,10.98,10.98,0,0,0,1.9-.03,12.775,12.775,0,0,1,1.75,0c.71.03,1.42.03,2.13.03a26.121,26.121,0,0,1,3.19-.03,4.269,4.269,0,0,0,1.67.03h4.65c1.54,0,3.11.03,4.65.03a1.269,1.269,0,0,0,.35-.03,5.385,5.385,0,0,1,1.7,0,4.516,4.516,0,0,0,.96-.05c.15,0,.28-.03.43-.03,1.04.05,2.05.1,3.09.13.86.03,1.72-.08,2.58,0,1.7.1,3.36-.1,5.06-.05.33,0,.66.08,1.01.1a1.021,1.021,0,0,0,.3-.03,1.059,1.059,0,0,1,.43-.05,6.843,6.843,0,0,0,2.07-.03c.71-.03,1.42,0,2.1-.03h1.04c.68.03,1.37.08,2.05.1a3.234,3.234,0,0,0,.53-.08,2.639,2.639,0,0,1,1.01,0,2.4,2.4,0,0,0,1.19.05,6.964,6.964,0,0,1,2.23.03,4.865,4.865,0,0,0,1.26-.03c.48,0,.96-.03,1.44-.03,1.01,0,2.05.13,3.06.03,1.16-.1,2.33.08,3.49.03a2.843,2.843,0,0,1,1.32.08c.2.08.48-.1.73-.13.4-.03.81.03,1.19.03.3,0,.58.03.89.03a23.935,23.935,0,0,0,3.39-.03c1.01-.13,2.02.15,3.04-.05a2.488,2.488,0,0,0,.2-1.59c0-.1-.05-.2-.05-.3,0-.63,0-1.26.05-1.92a21.875,21.875,0,0,0-.05-2.56,2.662,2.662,0,0,1,.18-.81c-.4-.61.03-1.21.23-1.75-.13-.23-.28-.38-.3-.53a18.416,18.416,0,0,1,.03-2.78c.03-.35.05-.68.05-1.04a10.392,10.392,0,0,1,0-1.85,25.5,25.5,0,0,0-.03-2.76c.03-1.19.1-2.38.15-3.57a.874.874,0,0,0-.03-.4.986.986,0,0,1,.05-.81,1.159,1.159,0,0,0,.03-.76,4.579,4.579,0,0,1-.03-1.06c-.33-.03-.71-.08-1.09-.08-.81,0-1.62.03-2.4.05-.61.03-1.19.05-1.8.05-.35,0-.71-.08-1.09-.08-.51-.03-.99-.03-1.49-.03-1.21.03-2.4.1-3.62.13a1.269,1.269,0,0,1-.35-.03c-.58,0-1.16-.03-1.75-.03a1.93,1.93,0,0,1-1.11-.2c-.4.08-.71.15-1.01.18a8.377,8.377,0,0,1-1.8.05c-1.09-.15-2.2.15-3.29-.15a3.436,3.436,0,0,0-.99.1c-.89.05-1.77.08-2.66.1-.51,0-1.01-.08-1.52-.05-.71,0-1.44.05-2.15.08-.23,0-.48-.03-.71-.05H67.18c-.53,0-.71-.23-.53-.71.05-.18.15-.33.2-.51a.573.573,0,0,1,.61-.4h.83c.71,0,1.42-.05,2.13-.03.78,0,1.57.05,2.35.05a1.579,1.579,0,0,0,.53-.03,2.286,2.286,0,0,1,1.19,0,3.966,3.966,0,0,0,1.24,0c.78-.03,1.57-.03,2.35-.03.73,0,1.44,0,2.18-.03.86,0,1.72-.03,2.58-.03.1.08.23.2.33.28Z" fill="#4659a6"/>
        <path id="Path_182" data-name="Path 182" d="M63.88,39.65a4.012,4.012,0,0,0-.05.58c0,.71,0,1.42.03,2.13,0,.35.08.71.08,1.09,0,.51-.1,1.01-.1,1.49,0,1.01.08,2,.1,3.01.03.78,0,1.57-.03,2.35-.03.83-.08,1.67-.08,2.53,0,1.14.08,2.28.1,3.44.03.96,0,1.92,0,2.88,0,.66.03,1.32-.03,1.97a9.1,9.1,0,0,0,.05,2.02,4.012,4.012,0,0,1-.05.58c-.03.81-.03,1.59-.03,2.4,0,.23.08.48.08.71a40.371,40.371,0,0,1-.05,4.4c-.05.66-.03,1.32-.03,2,0,.73.03,1.44.03,2.18,0,1.09.03,2.18-.03,3.26a12.888,12.888,0,0,0,.08,1.75,9.171,9.171,0,0,1-.08,1.26c-.03.48,0,.96-.03,1.47a1.928,1.928,0,0,1-.08.43c0,.05-.03.13,0,.15.3.23.18.51.13.76a.71.71,0,0,1-.83.61.928.928,0,0,1-.68-.81c-.03-.76-.05-1.52-.08-2.28V80.19c0-.25-.03-.48-.03-.73,0-.3.05-.63.05-.94a4.861,4.861,0,0,0,.03-.66c-.05-1.32-.15-2.61-.15-3.92,0-.76.15-1.52.13-2.28a5.9,5.9,0,0,0-.08-1.77,5.5,5.5,0,0,1,0-1.57c0-.83,0-1.64-.03-2.48,0-.33-.03-.63-.03-.96.03-1.11.1-2.23.1-3.31,0-.78-.08-1.57-.1-2.35,0-.18.03-.35.03-.53a6.105,6.105,0,0,0,0-1.54,6.335,6.335,0,0,1,.05-1.14c0-.25.03-.51.03-.78,0-.46-.03-.89-.03-1.34-.03-.38-.05-.76-.08-1.14a2.566,2.566,0,0,1,0-.48c0-.1.05-.2.05-.3,0-1.24-.03-2.5-.03-3.74a8.232,8.232,0,0,0,.03-1.11c-.05-.53.05-1.06.05-1.59,0-.38-.05-.76-.05-1.14,0-.83.03-1.64.03-2.48v-.43a3.979,3.979,0,0,1,.03-1.75c.03-.08-.05-.18-.05-.28a.61.61,0,0,1-.15-.03,15.232,15.232,0,0,0-1.47,1.64c-.08.15-.25.25-.38.4-.23.28-.46.56-.68.83a6.422,6.422,0,0,1-.56.61,8.313,8.313,0,0,0-1.7,1.8,10.365,10.365,0,0,1-1.11,1.19c-.33.35-.58.76-.91,1.11-.76.89-1.52,1.77-2.3,2.63-.35.38-.76.68-1.11,1.06a4.832,4.832,0,0,0-.43.58,7.32,7.32,0,0,1-1.82,1.82c-.18.13-.28.35-.46.48a1.366,1.366,0,0,1-.63.3c-.33.05-.61-.38-.48-.71a4.444,4.444,0,0,1,.89-1.49c.73-.83,1.44-1.72,2.25-2.5a13.5,13.5,0,0,0,1.01-1.14,24.087,24.087,0,0,1,1.62-1.85,7.767,7.767,0,0,1,1.67-1.62.307.307,0,0,0,.1-.15,7.727,7.727,0,0,1,1.59-2.02c.56-.58,1.09-1.21,1.67-1.8a2.194,2.194,0,0,0,.43-.56c.08-.1.1-.25.2-.3.38-.15.46-.56.73-.81s.56-.53.81-.81c.43-.48.86-.96,1.29-1.47a.9.9,0,0,1,1.06-.1,7.183,7.183,0,0,1,1.16,1.04c.35.4.63.89.99,1.29.3.35.68.61.99.94.43.48.81.99,1.21,1.49a2.6,2.6,0,0,0,.48.46,2.372,2.372,0,0,1,.89,1.04.555.555,0,0,0,.18.25c.66.71,1.34,1.39,1.97,2.1.38.43.73.91,1.11,1.34.35.4.76.76,1.14,1.16a29.339,29.339,0,0,1,2.05,2.3c.28.38.63.66.91,1.04.28.35.66.66.94,1.01.2.25.35.56.56.78.3.38.66.73.99,1.11a.777.777,0,0,1,.18.3.615.615,0,0,1-.25.73.9.9,0,0,1-1.01-.05c-.3-.33-.58-.71-.91-1.04a9.922,9.922,0,0,0-1.01-1.04,7.017,7.017,0,0,1-.78-.91c-.71-.78-1.42-1.54-2.1-2.33-.63-.73-1.24-1.47-1.85-2.2a2.177,2.177,0,0,0-.35-.33c.03-.13.03-.25.05-.35-.05-.05-.08-.08-.1-.08-.56.05-.76-.4-1.04-.73a4.934,4.934,0,0,0-1.14-1.14c-.15-.1-.23-.28-.35-.4-.38-.46-.71-.94-1.11-1.37-.89-1.01-1.82-2-2.73-2.99a2.373,2.373,0,0,0-.48-.4c.03,0-.03.03-.08.05Zm-5.46,2.43c.05-.13.1-.18.1-.23a.471.471,0,0,0-.15-.13c-.05.05-.13.1-.1.15-.03.05.05.1.15.2ZM76.1,52.25a.621.621,0,0,0-.1-.03c-.03.1-.08.23-.1.33a1.3,1.3,0,0,1,.13.03c.03-.13.05-.23.08-.33Z" fill="#ff5d12"/>
        <path id="Path_183" data-name="Path 183" d="M98.71,49.08c-.99-.23-1.11-.43-1.21-1.29a15.373,15.373,0,0,1,.05-2.35c.03-.56-.03-1.11-.03-1.67s.05-1.11.08-1.72a2.638,2.638,0,0,0,.3-.18,2.867,2.867,0,0,1-.33-.94c0-.28-.23-.68.2-.86a3.294,3.294,0,0,1-.18-1.69c0-.1.08-.2.08-.28-.18-.86.08-1.75-.15-2.61a3.448,3.448,0,0,0,.28-.23c0-.08,0-.13-.03-.15a.64.64,0,0,1-.03-.89c.13-.18.25-.35.4-.53.18-.2.38-.38.68-.25a.967.967,0,0,1,.4.76,6.226,6.226,0,0,0,0,1.67,15.8,15.8,0,0,1-.05,1.82c0,.2.03.43.03.63,0,1.11,0,2.23-.03,3.36,0,.94-.05,1.9-.08,2.83,0,.33-.03.63-.03.96a6.956,6.956,0,0,0,.03.78,12.775,12.775,0,0,1,0,1.75,3.829,3.829,0,0,1-.4,1.06Z" fill="#4659a6"/>
        <path id="Path_184" data-name="Path 184" d="M99.25,17.46c-.2-.03-.33-.05-.48-.08a.721.721,0,0,1-.63-.68,4.938,4.938,0,0,0-.1-.53c-.18-.46.08-.94.03-1.37a4.6,4.6,0,0,1-.13-1.29,6.981,6.981,0,0,0,.1-1.44,2.725,2.725,0,0,0-.13-.51,8.429,8.429,0,0,1-1.04.13,29.228,29.228,0,0,1-2.96.03,11.384,11.384,0,0,0-2.33.08,1.069,1.069,0,0,1-.43-.03c-.33,0-.63,0-.96-.03-.18,0-.35-.03-.61-.05.33-.58.58-1.06.89-1.52.05-.1.25-.13.38-.13.63.03,1.29.08,1.92.08s1.21-.08,1.8-.08c.68,0,1.37.05,2.05.08.23,0,.48-.03.71-.05a1.006,1.006,0,0,1,.3,0,6.168,6.168,0,0,1,1.24.38,1.054,1.054,0,0,1,.51.83,16.174,16.174,0,0,1,.08,3.11c-.03.43.05.86.05,1.26a3.858,3.858,0,0,1-.25,1.8Z" fill="#4659a6"/>
        <path id="Path_185" data-name="Path 185" d="M36.81,10.93c.08.3.15.58.23.89a6.428,6.428,0,0,1-2.68.15,5.875,5.875,0,0,0-1.39,0c-.91.03-1.82.03-2.71.05-.58,0-1.16,0-1.75-.03a.424.424,0,0,0-.48.43c-.03.33-.05.63-.05.96.03.73.08,1.49.13,2.23a1.325,1.325,0,0,1-.73,1.26.609.609,0,0,1-.89-.56V13.73c0-.61,0-1.21.03-1.8a1.518,1.518,0,0,1,.28-.71,1.841,1.841,0,0,1,1.95-.81c.56.1,1.16-.05,1.75,0a8.975,8.975,0,0,0,1.72-.03,7.982,7.982,0,0,1,1.09.03c.56.03,1.14,0,1.7.08a2.074,2.074,0,0,1,1.06.33,1.108,1.108,0,0,0,.76.1Z" fill="#4659a6"/>
        <path id="Path_186" data-name="Path 186" d="M27.52,35.83c.25.43.48.78.68,1.19a.436.436,0,0,1,.03.3,11.1,11.1,0,0,0-.1,2.76c0,.58-.05,1.16,0,1.75.13.99-.1,1.97,0,2.93a21.97,21.97,0,0,1-.05,3.14,2.352,2.352,0,0,0,.1.58.657.657,0,0,1-.25.71.452.452,0,0,1-.76-.18c-.08-.15-.1-.35-.2-.43-.51-.3-.4-.78-.4-1.24,0-.76.13-1.54.08-2.3a22.287,22.287,0,0,1-.05-2.71c.03-1.16-.03-2.33-.08-3.49a12.29,12.29,0,0,1,.03-1.82c.03-.61.46-.91.99-1.19Z" fill="#4659a6"/>
        <path id="Path_187" data-name="Path 187" d="M28.03,22.14c.03.3.05.68.08,1.04a2.361,2.361,0,0,1,.03.35,6.675,6.675,0,0,0,.03,2.48,1.038,1.038,0,0,1,0,.43,4.775,4.775,0,0,0,0,1.92c.03.33,0,.66,0,.96,0,.63.03,1.29.03,1.92a8.028,8.028,0,0,1-.05,1.09.793.793,0,0,1-.76.66.7.7,0,0,1-.78-.53.817.817,0,0,1-.08-.35,16.019,16.019,0,0,1,.1-2.93c.05-.15-.08-.35-.08-.53,0-.51.05-1.01.05-1.49,0-.43-.08-.86-.05-1.29a15.112,15.112,0,0,1,.03-2.23,9.328,9.328,0,0,0-.05-1.67V20.73a.6.6,0,0,1,.33-.53.5.5,0,0,1,.66.1,1.409,1.409,0,0,1,.56,1.21,3.962,3.962,0,0,0-.03.63Z" fill="#4659a6"/>
        <path id="Path_188" data-name="Path 188" d="M44.35,11.67c-.56.18-.99.58-1.54.23-.08-.05-.23.03-.35.03-.35,0-.73-.03-1.09-.05.03-.2.05-.33.08-.46a3.107,3.107,0,0,1,.1-.46c.13-.28.35-.38.68-.13,0-.46.3-.51.61-.51,1.42-.03,2.81-.05,4.22-.05.99,0,1.97.08,2.96.1.58,0,1.16-.05,1.75-.1a5.436,5.436,0,0,1,1.14-.03,6.807,6.807,0,0,1,1.21.33.275.275,0,0,1,.13.25.969.969,0,0,1-.83.96c-.51.05-1.01.08-1.52.1h-.13a3.89,3.89,0,0,0-.73-.18,6.97,6.97,0,0,0-.76.18c-.25.03-.53,0-.78.03-.35,0-.73.03-1.09.03a4.09,4.09,0,0,1-.78.05,9.474,9.474,0,0,0-2.38-.03c-.3.03-.68.08-.89-.3Zm1.67-.83s-.05-.05-.08-.05-.05.03-.08.05c.03.03.05.05.08.05S45.99,10.86,46.02,10.84Z" fill="#4659a6"/>
        <path id="Path_189" data-name="Path 189" d="M68.03,11.52a4.13,4.13,0,0,1-2.07.35c-.43.03-.89.03-1.32.03a2.648,2.648,0,0,1-1.42-.13.234.234,0,0,0-.18-.03c-.68.35-1.44.03-2.15.13-.3.05-.61,0-.91.03a2.353,2.353,0,0,1-2.02-.56,1.152,1.152,0,0,1,1.16-1.09c.68,0,1.37-.03,2.05,0a6.436,6.436,0,0,1,2.1.03c.61-.3,1.24.08,1.85-.1h.13a4.142,4.142,0,0,0,1.92.03,4.164,4.164,0,0,1,1.49.03c.48.03.94.08,1.39.1.18.33.3.61.46.89a1.735,1.735,0,0,1-2.48.3Zm-1.77-.15a.381.381,0,0,0,.03.18c.13-.03.23-.05.35-.08a.208.208,0,0,0-.03-.13A1.269,1.269,0,0,0,66.26,11.37Z" fill="#4659a6"/>
        <path id="Path_190" data-name="Path 190" d="M97.32,63.35V61.96c0-.63-.03-1.24-.05-1.87,0-.05-.03-.08,0-.13.25-.58.03-1.16.08-1.75.03-.33-.03-.68-.03-1.01,0-.35.03-.71.03-1.09V55.2c0-.13.08-.23.1-.35a.423.423,0,0,0,.05-.2,4.065,4.065,0,0,1,0-1.77c.05-.4.35-.56.76-.48.05,0,.08.03.13.03a1.966,1.966,0,0,1,.73,1.37c-.03.71-.03,1.44-.08,2.15a3.943,3.943,0,0,1-.28,1.8.28.28,0,0,0,0,.28,2.669,2.669,0,0,1,.28,1.9c-.03.33-.03.68-.03,1.01a4.294,4.294,0,0,1-.33,2.13c-.3.61-.43.63-1.04.4-.1.03-.2-.03-.33-.1Z" fill="#4659a6"/>
        <path id="Path_191" data-name="Path 191" d="M27.7,52.32a1.817,1.817,0,0,1,.48,1.77,2.475,2.475,0,0,0-.05.61c.03.78.1,1.57.13,2.33a3.97,3.97,0,0,1-.05,1.14,12.129,12.129,0,0,0-.03,3.01c.03.2-.13.4-.23.66.25.1.28.35.28.66v.91a.811.811,0,0,1-.83.78.737.737,0,0,1-.71-.76c-.03-.76-.05-1.52-.08-2.28-.03-.71-.03-1.39-.03-2.1a12.836,12.836,0,0,1,.05-1.75,12.378,12.378,0,0,0-.08-2.58,3.013,3.013,0,0,1,.43-1.97c.2-.23.38-.46.71-.43Z" fill="#4659a6"/>
        <path id="Path_192" data-name="Path 192" d="M74.65,11.67c-.3-.89,0-1.32.96-1.37.99-.05,1.95-.2,2.93-.18a19.1,19.1,0,0,1,3.62.08,2.981,2.981,0,0,0,.78-.05,5.633,5.633,0,0,1,2.45.13.8.8,0,0,1,.58,1.16.539.539,0,0,1-.58.33c-.99-.05-1.97-.13-2.93-.1a9.335,9.335,0,0,0-1.9.08,6.906,6.906,0,0,1-1.44.03c-1.06,0-2.13.03-3.21.03a10.763,10.763,0,0,1-1.26-.13Z" fill="#4659a6"/>
        <path id="Path_193" data-name="Path 193" d="M97.75,28.21a10.943,10.943,0,0,0-.1-2.86,5.226,5.226,0,0,0,.1-1.67,7.66,7.66,0,0,0,0-.83,5.449,5.449,0,0,1,.15-1.8c.08-.28-.05-.58.2-.83.28-.3.43-.38.78-.15.53.35.81.43.51,1.21a1.021,1.021,0,0,0-.03.3c.03.53.08,1.06.13,1.59v.13c-.2.83.05,1.72-.23,2.56-.03.05,0,.13,0,.18a4.955,4.955,0,0,1,.05,2.2.67.67,0,0,0,.03.35.7.7,0,0,1-.86.83,2.013,2.013,0,0,1-.35-.1c-.33-.08-.48-.25-.38-.61a1.742,1.742,0,0,0,0-.51Z" fill="#4659a6"/>
        <path id="Path_194" data-name="Path 194" d="M58.41,42.08c-.08-.1-.15-.15-.18-.2,0-.05.08-.1.1-.15.05.05.13.08.15.13s-.03.13-.08.23Z" fill="#4659a6"/>
        <path id="Path_195" data-name="Path 195" d="M76.1,52.25c-.03.1-.05.23-.08.33a1.3,1.3,0,0,1-.13-.03c.03-.1.08-.23.1-.33a.156.156,0,0,1,.1.03Z" fill="#4659a6"/>
        <path id="Path_196" data-name="Path 196" d="M46.02,10.83s-.05.05-.08.05-.05-.05-.08-.05c.03-.03.05-.05.08-.05S45.99,10.81,46.02,10.83Z" fill="#4659a6"/>
        <path id="Path_197" data-name="Path 197" d="M66.26,11.36a1.343,1.343,0,0,0,.35-.03.208.208,0,0,0,.03.13c-.13.03-.23.05-.35.08A.446.446,0,0,1,66.26,11.36Z" fill="#4659a6"/>
      </g>
      <path id="Path_198" data-name="Path 198" d="M117.28,5.01c.43,0,.58,12.62,1.49,13.46s9.03,1.85,9.03,2.35-7.51,1.85-8.27,2.43-2.35,12.04-3.01,11.94c-.66-.08-.18-10.02-1.42-11.46-1.26-1.42-7.94-1.16-7.94-1.92s5.44-1.49,6.93-3.34c1.52-1.85,2.28-13.46,3.19-13.46Z" fill="#ecedfb"/>
      <path id="Path_199" data-name="Path 199" d="M7.31,56.98c.28,0,.38,8.32.99,8.88s5.95,1.21,5.95,1.54-4.96,1.21-5.46,1.59-1.54,7.94-1.97,7.89-.1-6.6-.94-7.56c-.83-.94-5.24-.78-5.24-1.26,0-.51,3.59-.99,4.58-2.2s1.49-8.88,2.1-8.88Z" fill="#ecedfb"/>
      <circle id="Ellipse_20" data-name="Ellipse 20" cx="3.44" cy="3.44" r="3.44" transform="translate(11.97 80.99)" fill="#ecedfb"/>
      <circle id="Ellipse_21" data-name="Ellipse 21" cx="3.04" cy="3.04" r="3.04" transform="translate(109.44 71.32)" fill="#ecedfb"/>
      <circle id="Ellipse_22" data-name="Ellipse 22" cx="8.1" cy="8.1" r="8.1" transform="translate(123.17 31.65)" fill="#ecedfb"/>
    </g>
  </g>
</svg>
